<svg enable-background="new 0 0 400 100" viewBox="0 0 400 100" xmlns="http://www.w3.org/2000/svg"><g fill="#003c40"><path d="m207.5 45.4c0-13.4 10.4-23.9 24.4-23.9 9.5 0 15.6 3.9 19.7 9.6l-9.7 7.4c-2.6-3.3-5.7-5.4-10.1-5.4-6.5 0-11.1 5.4-11.1 12.1v.1c0 6.9 4.6 12.2 11.1 12.2 4.8 0 7.7-2.2 10.5-5.6l9.7 6.8c-4.4 6-10.3 10.3-20.5 10.3-13.3.1-24-9.9-24-23.6z"/><path d="m309.5 22.4h21.9c7.1 0 12 1.8 15.1 5 2.7 2.6 4.1 6.1 4.1 10.7v.1c0 7-3.8 11.6-9.5 14.1l11.1 16h-14.8l-9.3-13.9h-.1-5.5v13.9h-12.8v-45.9zm21.3 22c4.4 0 6.9-2.1 6.9-5.4v-.1c0-3.6-2.6-5.4-7-5.4h-8.4v11z"/><path d="m356.2 22.4h19.9c11.7 0 19.3 6 19.3 16.1v.1c0 10.8-8.4 16.5-19.9 16.5h-6.5v13.1h-12.8zm18.9 22.7c4.6 0 7.4-2.4 7.4-6v-.1c0-3.9-2.8-6-7.4-6h-6v12.1z"/><path d="m278.9 20.2c-14 0-25.3 11.3-25.3 25.3 0 9.2 4.9 17.2 12.2 21.6v22.6l13.2-8.6 13.2 8.6v-22.6c7.3-4.4 12.2-12.4 12.2-21.6-.2-13.9-11.5-25.3-25.5-25.3zm7.9 17.1c1.2 0 2.2 1 2.2 2.2s-1 2.2-2.2 2.2-2.2-1-2.2-2.2 1-2.2 2.2-2.2zm-16 0c1.2 0 2.2 1 2.2 2.2s-1 2.2-2.2 2.2-2.2-1-2.2-2.2 1-2.2 2.2-2.2zm19 12.9c-.5.5-1.2 1.3-2.3 1.9s-2.4 1.2-3.9 1.5c-.8.2-1.5.3-2.4.4s-1.5.1-2.4.1c-.8 0-1.6-.1-2.4-.2s-1.6-.3-2.3-.4c-1.5-.4-2.9-.9-3.9-1.5-1.1-.6-1.9-1.3-2.3-1.8-.5-.5-.7-.9-.7-.9s1.4.7 3.6 1.2 5.1.8 8.1.8h2.2c.7 0 1.4-.1 2.1-.1 1.4-.1 2.6-.3 3.7-.6 2.2-.5 3.6-1.3 3.6-1.3s-.2.4-.7.9z"/><path d="m36.9 42.3c-1 1.8-2.3 3.3-3.9 4.5s-3.5 2.1-5.7 2.7-4.4.9-6.9.9h-12.3v16.9h-3.4v-45.3h16.7c2.5 0 4.8.3 6.9.9s3.9 1.5 5.4 2.7 2.7 2.6 3.5 4.3 1.2 3.7 1.2 5.9v.2c0 2.4-.5 4.5-1.5 6.3zm-1.9-6.2c0-1.8-.3-3.4-1-4.8s-1.6-2.5-2.9-3.4c-1.2-.9-2.7-1.6-4.4-2.1s-3.6-.7-5.6-.7h-13v22.3h12.6c2.1 0 4.1-.3 5.8-.8s3.2-1.3 4.5-2.2c1.2-1 2.2-2.2 2.9-3.6s1-2.9 1.1-4.7z"/><path d="m48.3 67.4v-45.4h3.4v45.3z"/><path d="m100.7 67.4-32.3-40.3v40.3h-3.3v-45.4h3.2l31.7 39.5v-39.5h3.3v45.3z"/><path d="m116.2 67.4v-45.4h32.6v3h-29.2v18h26.3v3h-26.3v18.3h29.6v3z"/><path d="m189.1 60.7c-.8 1.5-1.8 2.8-3.1 3.9s-2.9 1.9-4.8 2.5-3.9.9-6.1.9c-3.7 0-7-.6-9.9-1.8-3-1.2-5.8-3-8.6-5.4l2.2-2.5c1.3 1.2 2.5 2.2 3.8 3 1.2.8 2.5 1.5 3.8 2.1 1.3.5 2.7 1 4.1 1.2 1.4.3 3 .4 4.7.4s3.3-.2 4.7-.7 2.7-1.1 3.7-1.9 1.8-1.7 2.4-2.8.9-2.3.9-3.6v-.1c0-1.2-.2-2.3-.6-3.2s-1-1.8-2-2.6-2.3-1.5-4-2.1-3.8-1.2-6.4-1.7c-2.8-.6-5.1-1.2-7.1-2s-3.6-1.6-4.8-2.7c-1.2-1-2.2-2.2-2.7-3.5-.6-1.3-.9-2.9-.9-4.6v-.1c0-1.7.4-3.2 1.1-4.7.7-1.4 1.8-2.7 3.1-3.8s2.9-1.9 4.7-2.5 3.8-.9 5.9-.9c3.3 0 6.2.5 8.6 1.4s4.8 2.3 7.1 4.1l-2.2 2.7c-2.2-1.9-4.4-3.2-6.6-4s-4.6-1.2-7.1-1.2c-1.7 0-3.2.2-4.6.7s-2.6 1.1-3.5 1.8c-1 .8-1.7 1.7-2.3 2.7-.5 1-.8 2.1-.8 3.3v.1c0 1.2.2 2.3.6 3.3s1 1.9 2 2.7 2.3 1.5 4.1 2.2c1.7.6 4 1.3 6.7 1.8 5.3 1.1 9.2 2.6 11.5 4.6 2.4 2 3.5 4.6 3.5 7.9v.1c0 1.8-.3 3.4-1.1 5z"/></g></svg>