<?xml version="1.0" encoding="UTF-8" standalone="no"?>
<svg
   xmlns:dc="http://purl.org/dc/elements/1.1/"
   xmlns:cc="http://creativecommons.org/ns#"
   xmlns:rdf="http://www.w3.org/1999/02/22-rdf-syntax-ns#"
   xmlns:svg="http://www.w3.org/2000/svg"
   xmlns="http://www.w3.org/2000/svg"
   xmlns:sodipodi="http://sodipodi.sourceforge.net/DTD/sodipodi-0.dtd"
   xmlns:inkscape="http://www.inkscape.org/namespaces/inkscape"
   id="Capa_1"
   data-name="Capa 1"
   viewBox="0 0 20 20"
   version="1.1"
   sodipodi:docname="aprobacion.svg"
   inkscape:version="1.0.2-2 (e86c870879, 2021-01-15)">
  <metadata
     id="metadata34">
    <rdf:RDF>
      <cc:Work
         rdf:about="">
        <dc:format>image/svg+xml</dc:format>
        <dc:type
           rdf:resource="http://purl.org/dc/dcmitype/StillImage" />
      </cc:Work>
    </rdf:RDF>
  </metadata>
  <defs
     id="defs32" />
  <sodipodi:namedview
     pagecolor="#ffffff"
     bordercolor="#666666"
     borderopacity="1"
     objecttolerance="10"
     gridtolerance="10"
     guidetolerance="10"
     inkscape:pageopacity="0"
     inkscape:pageshadow="2"
     inkscape:window-width="1920"
     inkscape:window-height="1017"
     id="namedview30"
     showgrid="false"
     inkscape:zoom="42.5"
     inkscape:cx="10"
     inkscape:cy="8.1176471"
     inkscape:window-x="-8"
     inkscape:window-y="-8"
     inkscape:window-maximized="1"
     inkscape:current-layer="Capa_1" />
  <title
     id="title23">aprobacion</title>
  <path
     d="M 9.97,3.2 A 7.0588235,6.8 0 1 0 17.028823,10 7.0588235,6.8 0 0 0 9.97,3.2 Z m 0,12.6752 A 6.0988235,5.8752 0 1 1 16.068823,10 6.1058823,5.882 0 0 1 9.97,15.8684 Z"
     id="path25"
     style="stroke-width:0.69282" />
  <path
     d="m 13.068823,6.8992 a 0.52941177,0.51 0 0 0 -0.705882,0.17 l -3.0494116,4.76 -1.7082353,-1.6864 A 0.52941177,0.51 0 1 0 6.85,10.8228 l 2.1811765,2.1556 a 0.52941177,0.51 0 0 0 0.3811765,0.1564 h 0.05647 a 0.52941177,0.51 0 0 0 0.3952944,-0.238 L 13.26647,7.5724 A 0.52941177,0.51 0 0 0 13.068823,6.8992 Z"
     id="path27"
     style="stroke-width:0.69282" />
</svg>
