<?xml version="1.0" encoding="utf-8"?>
<!-- Generator: Adobe Illustrator 22.1.0, SVG Export Plug-In . SVG Version: 6.00 Build 0)  -->
<svg version="1.1" id="Layer_1" xmlns="http://www.w3.org/2000/svg" xmlns:xlink="http://www.w3.org/1999/xlink" x="0px" y="0px"
	 viewBox="0 0 40 40" style="enable-background:new 0 0 40 40;" xml:space="preserve">
<style type="text/css">
	.st0{fill:#95E8E3;}
	.st1{fill:#FFFFFF;}
	.st2{fill:#FFEF5A;}
</style>
<g>
	<g>
		<path class="st0" d="M35.2,24.9H4.8c1.8,5.8,6.9,10.1,13.1,10.9h4.2C28.3,35.1,33.3,30.7,35.2,24.9z"/>
		<path class="st0" d="M5.3,14h29.5C32.3,8.2,26.6,4.1,20,4.1C13.4,4.1,7.7,8.2,5.3,14z"/>
		<path class="st1" d="M35.2,24.9c0.5-1.5,0.8-3.2,0.8-4.8c0-2.2-0.4-4.2-1.2-6.1H5.3c-0.8,1.9-1.2,3.9-1.2,6.1
			c0,1.7,0.3,3.3,0.8,4.8H35.2z"/>
	</g>
	<circle class="st2" cx="20" cy="19.7" r="3.6"/>
</g>
</svg>
