<?xml version="1.0" encoding="utf-8"?>
<!-- Generator: Adobe Illustrator 22.1.0, SVG Export Plug-In . SVG Version: 6.00 Build 0)  -->
<svg version="1.1" id="Layer_1" xmlns="http://www.w3.org/2000/svg" xmlns:xlink="http://www.w3.org/1999/xlink" x="0px" y="0px"
	 viewBox="0 0 40 40" style="enable-background:new 0 0 40 40;" xml:space="preserve">
<style type="text/css">
	.st0{fill:#6D6D6D;}
</style>
<g>
	<g>
		<g>
			<path class="st0" d="M33.8,8.4H26V7.2c0-1.9-1.5-3.4-3.4-3.4h-4.5c-1.9,0-3.4,1.5-3.4,3.4v1.1H7c-0.6,0-1.1,0.5-1.1,1.1
				s0.5,1.1,1.1,1.1h1.2l2.1,23.6c0.1,0.6,0.5,1,1.1,1h17.9c0.6,0,1.1-0.4,1.1-1l2.1-23.6h1.2c0.6,0,1.1-0.5,1.1-1.1
				C34.9,8.9,34.4,8.4,33.8,8.4z M17.1,7.2c0-0.6,0.5-1.1,1.1-1.1h4.5c0.6,0,1.1,0.5,1.1,1.1v1.1h-6.7L17.1,7.2L17.1,7.2z M28.3,33
				H12.5l-2-22.4H16h14.4L28.3,33z"/>
		</g>
	</g>
	<g>
		<g>
			<path class="st0" d="M17.1,29.5L17.1,29.5L16,13.8c0-0.6-0.6-1.1-1.2-1c-0.6,0-1.1,0.6-1,1.2l1.1,15.7c0,0.6,0.5,1,1.1,1l0,0
				C16.6,30.7,17.1,30.1,17.1,29.5z"/>
		</g>
	</g>
	<g>
		<g>
			<path class="st0" d="M20.4,12.8c-0.6,0-1.1,0.5-1.1,1.1v15.7c0,0.6,0.5,1.1,1.1,1.1s1.1-0.5,1.1-1.1V13.9
				C21.5,13.3,21,12.8,20.4,12.8z"/>
		</g>
	</g>
	<g>
		<g>
			<path class="st0" d="M26.1,12.8c-0.6,0-1.2,0.4-1.2,1l-1.1,15.7c0,0.6,0.4,1.2,1,1.2l0,0h0.1c0.6,0,1.1-0.5,1.1-1L27.1,14
				C27.2,13.4,26.7,12.9,26.1,12.8z"/>
		</g>
	</g>
</g>
</svg>
