<?xml version="1.0" encoding="utf-8"?>
<!-- Generator: Adobe Illustrator 22.1.0, SVG Export Plug-In . SVG Version: 6.00 Build 0)  -->
<svg version="1.1" id="Layer_1" xmlns="http://www.w3.org/2000/svg" xmlns:xlink="http://www.w3.org/1999/xlink" x="0px" y="0px"
	 viewBox="0 0 40 40" style="enable-background:new 0 0 40 40;" xml:space="preserve">
<style type="text/css">
	.st0{fill:#999999;}
</style>
<path class="st0" d="M31.5,9.6H8.4c-1.5,0-2.7,1.2-2.7,2.7v16C5.8,29.8,7,31,8.4,31h23.1c1.5,0,2.7-1.2,2.7-2.7v-16
	C34.2,10.8,33,9.6,31.5,9.6z M31.5,11.4c0.1,0,0.2,0,0.3,0.1L20,21.8L8.1,11.5c0.1,0,0.2-0.1,0.3-0.1L31.5,11.4z M31.5,29.2H8.4
	c-0.5,0-0.9-0.4-0.9-0.9V13.3l11.9,10.3c0.2,0.1,0.4,0.2,0.6,0.2c0.2,0,0.4-0.1,0.6-0.2l11.9-10.3v14.9C32.4,28.8,32,29.2,31.5,29.2
	z"/>
</svg>
