<?xml version="1.0" encoding="utf-8"?>
<!-- Generator: Adobe Illustrator 22.1.0, SVG Export Plug-In . SVG Version: 6.00 Build 0)  -->
<svg version="1.1" id="Layer_1" xmlns="http://www.w3.org/2000/svg" xmlns:xlink="http://www.w3.org/1999/xlink" x="0px" y="0px"
	 viewBox="0 0 40 40" style="enable-background:new 0 0 40 40;" xml:space="preserve">
<style type="text/css">
	.st0{fill:#FF7CC6;}
</style>
<g>
	<g>
		<path class="st0" d="M33.8,18.4c-2.2,0-2.8-3-0.8-3.8l0,0l-0.5-1.3h-0.1c-0.3,0.1-0.5,0.2-0.8,0.2c-1.6,0-2.7-2.1-1.4-3.4l0.1-0.1
			l-1-1l0,0c-0.4,0.4-0.9,0.6-1.4,0.6c-1.3,0-2.5-1.3-1.9-2.8l0,0l-1.3-0.5v0.1c-0.4,0.8-1.1,1.2-1.8,1.2c-1,0-2-0.7-2-2V5.5h-1.4
			c0,1.3-1,2-2,2c-0.7,0-1.5-0.4-1.8-1.2l0,0l-1.3,0.5v0.1c0.6,1.5-0.6,2.8-1.9,2.8c-0.5,0-1-0.2-1.4-0.6L11.2,9l-1,1l0,0
			c1.3,1.3,0.2,3.4-1.4,3.4c-0.3,0-0.5-0.1-0.8-0.2l0,0l-0.5,1.3h0.1c2,0.8,1.4,3.8-0.8,3.8H6.7v1.4l0,0c2.2,0,2.8,3,0.8,3.8l0,0
			L8,24.9h0.1c0.3-0.1,0.5-0.2,0.8-0.2c1.6,0,2.7,2.1,1.4,3.4l-0.1,0.1l1,1l0,0c0.4-0.4,0.9-0.6,1.4-0.6c1.3,0,2.5,1.3,1.9,2.8l0,0
			l1.3,0.5v-0.1c0.4-0.8,1.1-1.2,1.8-1.2c1,0,2,0.7,2,2v0.1H21c0-1.3,1-2,2-2c0.7,0,1.5,0.4,1.8,1.2l0,0l1.3-0.5v-0.1
			c-0.6-1.5,0.6-2.8,1.9-2.8c0.5,0,1,0.2,1.4,0.6l0.1,0.1l1-1l0,0c-1.3-1.3-0.2-3.4,1.4-3.4c0.3,0,0.5,0.1,0.8,0.2l0,0l0.5-1.3h-0.1
			c-2-0.8-1.4-3.8,0.8-3.8H34L33.8,18.4L33.8,18.4z M30.7,23.4c-0.9,0.4-1.7,1.2-2.1,2.1c-0.2,0.5-0.3,1-0.3,1.4c0,0,0,0-0.1,0
			c-1.3,0-2.6,0.7-3.3,1.8c-0.2,0.2-0.3,0.5-0.4,0.7c-0.4-0.2-0.9-0.3-1.4-0.3c-1,0-2,0.4-2.7,1l-0.1,0.1c-0.7-0.7-1.7-1.2-2.9-1.2
			c-0.6,0-1.1,0.1-1.6,0.3c-0.1-0.2-0.2-0.4-0.3-0.6c-0.7-1.1-2-1.8-3.2-1.8c0-0.5-0.1-1.1-0.3-1.6c-0.4-1-1.2-1.8-2.2-2.2
			c0.3-0.7,0.4-1.5,0.2-2.2c-0.2-0.8-0.5-1.5-1-2c0.6-0.5,1-1.3,1.1-2.1c0.2-0.8,0.1-1.6-0.2-2.3c0.9-0.4,1.7-1.2,2.1-2.1
			c0.2-0.5,0.3-1,0.3-1.4c0,0,0,0,0.1,0c1.3,0,2.6-0.7,3.3-1.8C15.9,9,16,8.7,16.1,8.5c0.4,0.2,0.9,0.3,1.4,0.3c1,0,2-0.4,2.7-1
			l0.1-0.1C20.9,8.5,21.9,9,23.1,9c0.6,0,1.1-0.1,1.6-0.3c0.1,0.2,0.2,0.4,0.3,0.6c0.7,1.1,2,1.8,3.2,1.8c0,0.5,0.1,1.1,0.3,1.6
			c0.4,1,1.2,1.8,2.2,2.2c-0.3,0.7-0.4,1.5-0.2,2.2c0.2,0.8,0.5,1.5,1,2c-0.6,0.5-1,1.3-1.1,2.1C30.3,21.9,30.4,22.7,30.7,23.4z"/>
		<path class="st0" d="M20.3,12.3c-3.7,0-6.7,3-6.7,6.7s3,6.7,6.7,6.7s6.7-3,6.7-6.7S24,12.3,20.3,12.3z M20.3,24.3
			c-2.9,0-5.3-2.4-5.3-5.3s2.4-5.3,5.3-5.3s5.3,2.4,5.3,5.3S23.2,24.3,20.3,24.3z"/>
	</g>
</g>
</svg>
