<?xml version="1.0" encoding="utf-8"?>
<!-- Generator: Adobe Illustrator 22.1.0, SVG Export Plug-In . SVG Version: 6.00 Build 0)  -->
<svg version="1.1" id="Layer_1" xmlns="http://www.w3.org/2000/svg" xmlns:xlink="http://www.w3.org/1999/xlink" x="0px" y="0px"
	 viewBox="0 0 40 40" style="enable-background:new 0 0 40 40;" xml:space="preserve">
<style type="text/css">
	.st0{fill:#FFFFFF;}
</style>
<path class="st0" d="M3.2,27.3L3.2,27.3c0,0.3,0.3,2.4,1.2,3.6c0.1,0.1,0.1,0.2,0.2,0.2c0.4,0.4,0.8,0.8,1.3,1
	c0.9,0.5,1.8,0.6,2.3,0.7c0.1,0,0.1,0,0.2,0l0.1,0c4.4,0.3,11,0.4,11,0.4l0,0l0,0c0.1,0,6.7,0,11.1-0.4l0.1,0c0,0,0.1,0,0.2,0
	c0.5-0.1,1.3-0.2,2.3-0.7c0.4-0.2,0.9-0.6,1.3-1c0.1-0.1,0.1-0.1,0.2-0.2c1-1.2,1.2-3.3,1.3-3.6l0,0c0-0.1,0.2-2.7,0.2-5.4v-2.5
	c0-2.6-0.2-5.3-0.2-5.4l0,0c0-0.2-0.2-1.8-0.9-3.1c-0.1-0.3-0.3-0.5-0.5-0.7c-0.3-0.4-0.7-0.6-1-0.8c-1-0.6-2-0.7-2.7-0.8
	c-0.1,0-0.3,0-0.3,0l-0.1,0c-2.5-0.2-10.4-0.4-10.8-0.4l0,0l0,0c-0.1,0-6.7,0-11,0.4l-0.1,0c-0.1,0-0.1,0-0.2,0
	C7.6,8.6,6.7,8.7,5.7,9.4c-0.3,0.2-0.7,0.5-1,0.9c-0.2,0.2-0.4,0.5-0.5,0.7c-0.7,1.2-0.9,2.8-0.9,3.1l0,0c0,0.1-0.2,2.7-0.2,5.4v2.5
	C3,24.5,3.2,27.2,3.2,27.3z M30.6,30.9c-0.1,0-0.1,0-0.2,0c-4.3,0.3-10.7,0.4-10.9,0.4c-0.2,0-6.6,0-10.9-0.4c-0.1,0-0.1,0-0.2,0
	c-0.2,0-0.5-0.1-0.7-0.1l9-6.8l1.9,2c0.2,0.2,0.5,0.3,0.8,0.3c0.3,0,0.6-0.1,0.8-0.3l1.9-2l9,6.8C31,30.8,30.8,30.9,30.6,30.9z
	 M33.8,14.2c0,0.2,0.2,2.7,0.2,5.2v2.5c0,2.4-0.2,5-0.2,5.2c-0.1,0.7-0.4,2-0.9,2.6l-9.4-7.1l9.9-10.2C33.6,13,33.8,13.7,33.8,14.2z
	 M8.4,10.5c0.1,0,0.1,0,0.2,0c4.2-0.3,10.6-0.4,10.9-0.4c0.3,0,8.1,0.1,10.6,0.4c0.1,0,0.3,0,0.4,0.1c0.4,0,1,0.1,1.5,0.3L21.8,21.2
	l-1.3,1.4l-1,1l-1-1l-1.3-1.4L7.1,10.8C7.5,10.6,8,10.5,8.4,10.5z M4.9,19.4c0-2.4,0.2-5,0.2-5.2c0.1-0.4,0.2-1.2,0.5-1.8l9.9,10.1
	L6,29.7c-0.5-0.6-0.8-1.9-0.9-2.6c0-0.2-0.2-2.7-0.2-5.2V19.4z"/>
</svg>
