<?xml version="1.0" encoding="utf-8"?>
<!-- Generator: Adobe Illustrator 22.1.0, SVG Export Plug-In . SVG Version: 6.00 Build 0)  -->
<svg version="1.1" id="Layer_1" xmlns="http://www.w3.org/2000/svg" xmlns:xlink="http://www.w3.org/1999/xlink" x="0px" y="0px"
	 viewBox="0 0 40 40" style="enable-background:new 0 0 40 40;" xml:space="preserve">
<style type="text/css">
	.st0{fill:#4C4C4C;}
</style>
<g>
	<path class="st0" d="M20,19c3.9,0,7.1-3.3,7.1-7.3S23.9,4.5,20,4.5s-7.1,3.3-7.1,7.3S16.1,19,20,19z M20,6.7c2.7,0,4.9,2.3,4.9,5.1
		s-2.2,5.1-4.9,5.1S15,14.6,15,11.8S17.3,6.7,20,6.7z"/>
	<path class="st0" d="M20,21c-7.5,0-13.6,5.3-14.1,13.4c0,0.6,0.5,1.1,1.1,1.1c0.6,0,1-0.5,1.1-1.1c0.5-6.7,5.7-11.3,12-11.3
		s11.5,4.6,12,11.3c0,0.6,0.5,1.1,1.1,1.1c0.6,0,1.1-0.5,1.1-1.1C33.6,26.3,27.4,21,20,21z"/>
</g>
</svg>
