<?xml version="1.0" encoding="utf-8"?>
<!-- Generator: Adobe Illustrator 22.1.0, SVG Export Plug-In . SVG Version: 6.00 Build 0)  -->
<svg version="1.1" id="Layer_1" xmlns="http://www.w3.org/2000/svg" xmlns:xlink="http://www.w3.org/1999/xlink" x="0px" y="0px"
	 viewBox="0 0 40 40" style="enable-background:new 0 0 40 40;" xml:space="preserve">
<style type="text/css">
	.st0{fill:#4C4C4C;}
</style>
<path class="st0" d="M33.7,28.5l-2.2-3.9l0-5.6c0-5.2-3.4-9.6-8.1-11.1l0,0c0-1.9-1.6-3.5-3.5-3.5C18,4.5,16.4,6,16.4,8
	C11.7,9.5,8.3,13.9,8.3,19l0,5.6l-2.2,3.9c-0.4,0.7-0.4,1.5,0,2.2c0.4,0.7,1.1,1.1,1.9,1.1l0,0h0h7c0,2.6,2.2,4.8,4.8,4.8
	s4.8-2.1,4.8-4.8h7h0l0,0c0.8,0,1.5-0.4,1.9-1.1C34.1,30,34.1,29.2,33.7,28.5z M19.9,6.6c0.6,0,1.1,0.4,1.3,0.9c0,0,0,0,0,0
	c-0.4-0.1-0.9-0.1-1.3-0.1l0,0c0,0,0,0,0,0c0,0,0,0,0,0l0,0c-0.4,0-0.9,0-1.3,0.1C18.8,7,19.3,6.6,19.9,6.6z M22.4,7.7
	C22.4,7.7,22.4,7.7,22.4,7.7C22.4,7.7,22.4,7.7,22.4,7.7z M19.9,34.5c-1.5,0-2.7-1.2-2.7-2.7h5.4C22.6,33.3,21.4,34.5,19.9,34.5z
	 M31.7,29.7h-1H9.1h-1L8,29.5l2.2-3.9c0.2-0.3,0.3-0.7,0.3-1.1V19c0-4.9,3.7-9,8.5-9.5c0.3,0,0.6-0.1,0.9-0.1c0,0,0.1,0,0.1,0
	c0,0,0.1,0,0.1,0c0.3,0,0.6,0,0.9,0.1c4.8,0.5,8.5,4.6,8.5,9.5v5.5c0,0.4,0.1,0.7,0.3,1.1l2.2,3.9L31.7,29.7z"/>
</svg>
