<?xml version="1.0" encoding="utf-8"?>
<!-- Generator: Adobe Illustrator 22.1.0, SVG Export Plug-In . SVG Version: 6.00 Build 0)  -->
<svg version="1.1" id="Layer_1" xmlns="http://www.w3.org/2000/svg" xmlns:xlink="http://www.w3.org/1999/xlink" x="0px" y="0px"
	 viewBox="0 0 40 40" style="enable-background:new 0 0 40 40;" xml:space="preserve">
<style type="text/css">
	.st0{fill:#4C4C4C;}
</style>
<g>
	<path class="st0" d="M31.9,12.3c-0.1-0.5-0.5-0.9-1-0.9H26V9.7c0-3.3-2.7-6-6-6s-6,2.7-6,6v1.7H9.1c-0.5,0-1,0.4-1,0.9L5.3,35.1
		c0,0.3,0.1,0.6,0.3,0.8c0.2,0.2,0.5,0.3,0.8,0.3h27.3c0.3,0,0.6-0.1,0.8-0.3c0.2-0.2,0.3-0.5,0.3-0.8L31.9,12.3z M16,9.7
		c0-2.2,1.8-3.9,3.9-3.9s3.9,1.8,3.9,3.9v1.7H16V9.7z M7.5,34.2L10,13.4h4v3.3c0,0.6,0.5,1,1,1s1-0.5,1-1v-3.3h7.9v3.3
		c0,0.6,0.5,1,1,1s1-0.5,1-1v-3.3h4l0,0.2l2.4,20.6H7.5z"/>
</g>
</svg>
