<?xml version="1.0" encoding="utf-8"?>
<!-- Generator: Adobe Illustrator 22.1.0, SVG Export Plug-In . SVG Version: 6.00 Build 0)  -->
<svg version="1.1" id="Layer_1" xmlns="http://www.w3.org/2000/svg" xmlns:xlink="http://www.w3.org/1999/xlink" x="0px" y="0px"
	 viewBox="0 0 40 40" style="enable-background:new 0 0 40 40;" xml:space="preserve">
<style type="text/css">
	.st0{opacity:0.5;fill:#303030;}
	.st1{fill:#FFFFFF;}
	.st2{fill:#FF7CC6;}
</style>
<path class="st0" d="M30,10.5c-0.1-0.4-0.4-0.8-0.9-0.8H25V8.3c0-2.8-2.2-5-5-5s-5,2.2-5,5v1.4h-4.1c-0.4,0-0.8,0.3-0.9,0.8
	L7.8,29.5c0,0.2,0,0.5,0.2,0.7c0.2,0.2,0.4,0.3,0.6,0.3h22.8c0.2,0,0.5-0.1,0.6-0.3c0.2-0.2,0.2-0.4,0.2-0.7L30,10.5z M16.7,8.3
	C16.7,6.5,18.2,5,20,5s3.3,1.5,3.3,3.3v1.4h-6.6V8.3z M9.6,28.8l2.1-17.4H15v2.7c0,0.5,0.4,0.9,0.9,0.9s0.9-0.4,0.9-0.9v-2.7h6.6
	v2.7c0,0.5,0.4,0.9,0.9,0.9c0.5,0,0.9-0.4,0.9-0.9v-2.7h3.4l0,0.2l2,17.2H9.6z"/>
<g>
	<path class="st1" d="M31.4,23.7c3.8,0,6.8,3,6.8,6.8s-3,6.8-6.8,6.8s-6.8-3-6.8-6.8S27.7,23.7,31.4,23.7 M31.4,22.7
		c-4.3,0-7.8,3.5-7.8,7.8s3.5,7.8,7.8,7.8s7.8-3.5,7.8-7.8S35.7,22.7,31.4,22.7L31.4,22.7z"/>
</g>
<path class="st2" d="M37.7,27.9c-1-2.5-3.4-4.2-6.3-4.2c-2.8,0-5.3,1.7-6.3,4.2c-0.3,0.8-0.5,1.7-0.5,2.6c0,0.7,0.1,1.4,0.3,2.1
	c0.8,2.5,3,4.3,5.6,4.7h1.8c2.6-0.3,4.8-2.2,5.6-4.7c0.2-0.7,0.3-1.3,0.3-2.1C38.2,29.6,38,28.7,37.7,27.9z"/>
</svg>
