<?xml version="1.0" encoding="utf-8"?>
<!-- Generator: Adobe Illustrator 22.1.0, SVG Export Plug-In . SVG Version: 6.00 Build 0)  -->
<svg version="1.1" id="Layer_1" xmlns="http://www.w3.org/2000/svg" xmlns:xlink="http://www.w3.org/1999/xlink" x="0px" y="0px"
	 viewBox="0 0 40 40" style="enable-background:new 0 0 40 40;" xml:space="preserve">
<style type="text/css">
	.st0{fill:#303030;}
</style>
<g>
	<path class="st0" d="M20,7.4C13,7.4,7.4,13,7.4,20S13,32.6,20,32.6S32.6,27,32.6,20S27,7.4,20,7.4z M20,30.9C14,30.9,9.1,26,9.1,20
		S14,9.1,20,9.1S30.9,14,30.9,20S26,30.9,20,30.9z"/>
	<path class="st0" d="M26.3,22.6c-0.4-0.2-0.9-0.2-1.1,0.2c-1.1,1.6-3.1,2.7-5.2,2.7s-4.1-1.1-5.2-2.7c-0.2-0.4-0.7-0.5-1.1-0.2
		c-0.4,0.2-0.5,0.7-0.2,1.1c1.4,2.1,3.9,3.4,6.6,3.4s5.2-1.3,6.6-3.4C26.8,23.3,26.6,22.8,26.3,22.6z"/>
	<circle class="st0" cx="16.1" cy="17.3" r="1.1"/>
	<circle class="st0" cx="23.9" cy="17.3" r="1.1"/>
</g>
</svg>
