<?xml version="1.0" encoding="utf-8"?>
<!-- Generator: Adobe Illustrator 22.1.0, SVG Export Plug-In . SVG Version: 6.00 Build 0)  -->
<svg version="1.1" id="Layer_1" xmlns:svgjs="http://svgjs.com/svgjs"
	 xmlns="http://www.w3.org/2000/svg" xmlns:xlink="http://www.w3.org/1999/xlink" x="0px" y="0px" viewBox="0 0 512 512"
	 enable-background="new 0 0 512 512" xml:space="preserve">
<path fill="#FFFFFF" d="M405.333,81.8H106.667C87.115,81.8,71.8,97.115,71.8,116.667v298.667c0,19.551,15.315,34.866,34.867,34.866
	h298.667c19.551,0,34.866-15.315,34.866-34.867V116.667C440.2,97.115,424.885,81.8,405.333,81.8z M213.213,308.787V271H261v-46.813
	c0-31.217,24.122-57.84,54.961-60.707h48.532v37.787h-42.787c-12.853,0-22.92,10.068-22.92,22.92V271h59.733v37.787h-59.732v119.467
	L261,428.253V308.787H213.213z M320.733,330.733h59.732v-81.68h-59.732v-24.867c0-0.818,0.154-0.973,0.973-0.973h64.734v-81.68
	h-71.305l-0.446,0.02c-42.413,3.798-75.636,40.095-75.636,82.633v24.867h-47.787v81.68h47.787v97.52H106.667
	c-7.366,0-12.92-5.555-12.92-12.92V116.667c0-7.366,5.554-12.92,12.92-12.92h298.667c7.365,0,12.92,5.554,12.92,12.92
	l-0.001,298.666c0,7.365-5.555,12.92-12.92,12.92h-84.6V330.733z"/>
</svg>
