<?xml version="1.0" encoding="utf-8"?>
<!-- Generator: Adobe Illustrator 22.1.0, SVG Export Plug-In . SVG Version: 6.00 Build 0)  -->
<svg version="1.1" id="Layer_1" xmlns="http://www.w3.org/2000/svg" xmlns:xlink="http://www.w3.org/1999/xlink" x="0px" y="0px"
	 viewBox="0 0 40 40" style="enable-background:new 0 0 40 40;" xml:space="preserve">
<style type="text/css">
	.st0{fill:#FFFFFF;}
</style>
<g>
	<g>
		<path class="st0" d="M12.6,13.7H7.4c-0.6,0-1.1,0.5-1.1,1.1v19.6c0,0.6,0.5,1.1,1.1,1.1h5.2c0.6,0,1.1-0.5,1.1-1.1V14.8
			C13.6,14.2,13.1,13.7,12.6,13.7z M11.8,33.6H8.1V15.5h3.7V33.6z"/>
		<path class="st0" d="M10,4.6c-2,0-3.7,1.7-3.7,3.7c0,2,1.7,3.7,3.7,3.7c2,0,3.7-1.7,3.7-3.7C13.6,6.2,12,4.6,10,4.6z M10,10.1
			c-1,0-1.9-0.8-1.9-1.9c0-1,0.8-1.9,1.9-1.9c1,0,1.9,0.8,1.9,1.9S11,10.1,10,10.1z"/>
		<path class="st0" d="M30.4,16c-1.2-1-2.8-1.6-4.4-1.6c-1,0-2,0.3-2.9,0.7v-0.4c0-0.6-0.5-1-1-1h-5.3c-0.6,0-1,0.5-1,1v19.7
			c0,0.6,0.5,1,1,1h5.4c0.5,0,0.9-0.4,0.9-0.9V22.8c0-1,0.8-1.9,1.8-1.9c1,0,1.9,0.8,1.9,1.8v11.8c0,0.5,0.4,0.9,0.9,0.9h5.2
			c0.5,0,0.9-0.4,0.9-0.9V23.1C33.8,20.4,32.5,17.8,30.4,16z M31.9,33.6h-3.3V22.7c0-2-1.6-3.7-3.7-3.7c-2,0-3.7,1.6-3.7,3.7v10.9
			h-3.7V15.5h3.7v1.3h0c0,0.2,0.1,0.4,0.2,0.6c0.3,0.4,0.9,0.4,1.3,0.1c0.9-0.8,2-1.2,3.2-1.3c1.2,0,2.3,0.4,3.3,1.1
			c1.7,1.4,2.7,3.5,2.7,5.7V33.6z"/>
	</g>
</g>
</svg>
