<svg id="Capa_1" data-name="Capa 1" xmlns="http://www.w3.org/2000/svg" viewBox="0 0 19.09 20"><title>icono-catalogo-secreto</title><path d="M19.13,5.5a0.65,0.65,0,0,0-.84.37l-0.34.88A8.63,8.63,0,0,0,13,2,3.28,3.28,0,0,0,7,2,8.61,8.61,0,0,0,1.46,9,0.65,0.65,0,0,0,2,9.69H2.11a0.65,0.65,0,0,0,.64-0.57,7.28,7.28,0,0,1,4-5.61,3.27,3.27,0,0,0,6.53,0,7.32,7.32,0,0,1,3.61,4.08L15.41,6.8A0.65,0.65,0,1,0,14.81,8l2.75,1.42h0a0.63,0.63,0,0,0,.2,0H18l0.08,0h0.05l0,0a0.63,0.63,0,0,0,.15-0.1l0.06-.05a0.64,0.64,0,0,0,.1-0.16l0,0,1-2.7A0.65,0.65,0,0,0,19.13,5.5ZM10,5.28a2,2,0,1,1,2-2A2,2,0,0,1,10,5.28Z" transform="translate(-0.46)"/><path d="M18,10.31a0.66,0.66,0,0,0-.72.57,7.28,7.28,0,0,1-4,5.61,3.27,3.27,0,0,0-6.53,0,7.32,7.32,0,0,1-3.61-4.08L4.59,13.2A0.65,0.65,0,1,0,5.19,12L2.44,10.62H2.39l-0.17,0H2L2,10.58h0l0,0a0.63,0.63,0,0,0-.16.1l-0.06.05a0.63,0.63,0,0,0-.1.16l0,0-1,2.7a0.65,0.65,0,1,0,1.21.47L2,13.26A8.6,8.6,0,0,0,7,18a3.28,3.28,0,0,0,6,0,8.61,8.61,0,0,0,5.53-7A0.65,0.65,0,0,0,18,10.31ZM10,18.7a2,2,0,1,1,2-2A2,2,0,0,1,10,18.7Z" transform="translate(-0.46)"/></svg>