<?xml version="1.0" encoding="utf-8"?>
<!-- Generator: Adobe Illustrator 22.1.0, SVG Export Plug-In . SVG Version: 6.00 Build 0)  -->
<svg version="1.1" id="Layer_1" xmlns:svgjs="http://svgjs.com/svgjs"
	 xmlns="http://www.w3.org/2000/svg" xmlns:xlink="http://www.w3.org/1999/xlink" x="0px" y="0px" viewBox="0 0 512 512"
	 enable-background="new 0 0 512 512" xml:space="preserve">
<g>
	<path fill="#FFFFFF" d="M338.184,96.8H173.816c-53.495,0-97.016,43.52-97.016,97.016v164.371c0,53.493,43.52,97.013,97.016,97.013
		h164.371c53.493,0,97.013-43.52,97.013-97.013V193.816C435.2,140.32,391.68,96.8,338.184,96.8z M414.189,358.187
		c0,41.907-34.095,76.002-76.005,76.002H173.816c-41.91,0-76.005-34.095-76.005-76.002V193.816c0-41.91,34.095-76.005,76.005-76.005
		h164.371c41.907,0,76.002,34.095,76.002,76.005V358.187z"/>
	<path fill="#FFFFFF" d="M256,178.003c-54.037,0-97.997,43.961-97.997,97.997s43.961,97.997,97.997,97.997
		s97.997-43.961,97.997-97.997S310.037,178.003,256,178.003z M256,352.986c-42.448,0-76.986-34.535-76.986-76.986
		c0-42.448,34.538-76.986,76.986-76.986c42.451,0,76.986,34.538,76.986,76.986C332.986,318.451,298.451,352.986,256,352.986z"/>
	<path fill="#FFFFFF" d="M356.341,143.2c-15.969,0-28.957,12.991-28.957,28.957c0,15.969,12.988,28.96,28.957,28.96
		s28.96-12.991,28.96-28.96S372.309,143.2,356.341,143.2z M356.341,180.103c-4.38,0-7.946-3.566-7.946-7.946
		c0-4.383,3.566-7.946,7.946-7.946c4.383,0,7.949,3.563,7.949,7.946C364.289,176.537,360.724,180.103,356.341,180.103z"/>
</g>
</svg>
