<?xml version="1.0" encoding="utf-8"?>
<!-- Generator: Adobe Illustrator 22.1.0, SVG Export Plug-In . SVG Version: 6.00 Build 0)  -->
<svg version="1.1" id="Layer_1" xmlns="http://www.w3.org/2000/svg" xmlns:xlink="http://www.w3.org/1999/xlink" x="0px" y="0px"
	 viewBox="0 0 40 40" style="enable-background:new 0 0 40 40;" xml:space="preserve">
<style type="text/css">
	.st0{fill:#4C4C4C;}
</style>
<g>
	<g>
		<g>
			<path class="st0" d="M30.6,35.6h-6.7c-0.6,0-1.1-0.5-1.1-1.1v-8.4c0-0.1-0.1-0.2-0.2-0.2h-5.2c-0.1,0-0.2,0.1-0.2,0.2v8.4
				c0,0.6-0.5,1.1-1.1,1.1H9.4c-1.3,0-2.3-1-2.3-2.3V21.7c0-0.6,0.5-1.1,1.1-1.1s1.1,0.5,1.1,1.1v11.6c0,0.1,0.1,0.2,0.2,0.2h5.7
				v-7.4c0-1.3,1-2.3,2.3-2.3h5.2c1.3,0,2.3,1,2.3,2.3v7.4h5.7c0.1,0,0.2-0.1,0.2-0.2V21.7c0-0.6,0.5-1.1,1.1-1.1
				c0.6,0,1.1,0.5,1.1,1.1v11.6C32.9,34.6,31.9,35.6,30.6,35.6z"/>
		</g>
		<g>
			<path class="st0" d="M5.4,19.4c-0.3,0-0.6-0.1-0.8-0.3c-0.4-0.4-0.4-1.1,0-1.5l12-11.8c1.9-1.8,4.9-1.8,6.8,0l11.9,11.7
				c0.4,0.4,0.4,1.1,0,1.5c-0.4,0.4-1.1,0.4-1.5,0L21.9,7.3c-1-1-2.7-1-3.7,0l-12,11.8C6,19.3,5.7,19.4,5.4,19.4z"/>
		</g>
	</g>
</g>
</svg>
