<?xml version="1.0" encoding="utf-8"?>
<!-- Generator: Adobe Illustrator 22.1.0, SVG Export Plug-In . SVG Version: 6.00 Build 0)  -->
<svg version="1.1" id="Layer_1" xmlns="http://www.w3.org/2000/svg" xmlns:xlink="http://www.w3.org/1999/xlink" x="0px" y="0px"
	 viewBox="0 0 40 40" style="enable-background:new 0 0 40 40;" xml:space="preserve">
<style type="text/css">
	.st0{fill:#676767;}
</style>
<g>
	<g>
		<path class="st0" d="M19.6,20.3c2.2,0,4.1-0.8,5.6-2.3c1.5-1.5,2.3-3.4,2.3-5.6c0-2.2-0.8-4.1-2.3-5.6c-1.5-1.5-3.4-2.3-5.6-2.3
			c-2.2,0-4.1,0.8-5.6,2.3s-2.3,3.4-2.3,5.6c0,2.2,0.8,4.1,2.3,5.6C15.5,19.5,17.4,20.3,19.6,20.3z M15.3,8.2
			c1.2-1.2,2.6-1.8,4.2-1.8c1.7,0,3.1,0.6,4.2,1.8c1.2,1.2,1.8,2.6,1.8,4.2c0,1.7-0.6,3.1-1.8,4.2c-1.2,1.2-2.6,1.8-4.2,1.8
			c-1.7,0-3.1-0.6-4.2-1.8c-1.2-1.2-1.8-2.6-1.8-4.2C13.6,10.7,14.1,9.3,15.3,8.2z"/>
		<path class="st0" d="M33.4,29.7c0-0.6-0.1-1.3-0.3-2.1c-0.1-0.7-0.3-1.4-0.5-2.1c-0.2-0.7-0.5-1.3-0.9-1.9
			C31.4,23,31,22.4,30.5,22c-0.5-0.5-1.1-0.9-1.9-1.2c-0.7-0.3-1.5-0.4-2.4-0.4c-0.3,0-0.7,0.1-1.3,0.5c-0.4,0.3-0.8,0.5-1.3,0.9
			c-0.4,0.3-1,0.5-1.7,0.8c-0.7,0.2-1.4,0.3-2.1,0.3c-0.7,0-1.4-0.1-2.1-0.3c-0.7-0.2-1.3-0.5-1.7-0.8c-0.5-0.3-0.9-0.6-1.3-0.9
			c-0.6-0.4-0.9-0.5-1.3-0.5c-0.9,0-1.7,0.1-2.4,0.4c-0.7,0.3-1.3,0.7-1.9,1.2c-0.5,0.5-0.9,1-1.3,1.7c-0.4,0.6-0.6,1.3-0.9,1.9
			c-0.2,0.6-0.4,1.3-0.5,2.1c-0.1,0.7-0.2,1.4-0.3,2.1c0,0.6-0.1,1.3-0.1,1.9c0,1.7,0.5,3.1,1.6,4.1c1.1,1,2.5,1.5,4.2,1.5h15.8
			c1.7,0,3.1-0.5,4.2-1.5c1.1-1,1.6-2.4,1.6-4.1C33.5,31,33.4,30.4,33.4,29.7z M30.5,34.4c-0.7,0.7-1.6,1-2.8,1H11.9
			c-1.2,0-2.1-0.3-2.8-1c-0.7-0.7-1-1.5-1-2.7c0-0.6,0-1.2,0.1-1.8c0-0.6,0.1-1.2,0.2-1.9c0.1-0.7,0.3-1.3,0.4-1.8
			c0.2-0.5,0.4-1.1,0.7-1.6c0.3-0.5,0.6-0.9,1-1.2c0.3-0.3,0.7-0.6,1.2-0.8c0.5-0.2,1-0.3,1.5-0.3c0.1,0,0.2,0.1,0.4,0.2
			c0.4,0.3,0.9,0.6,1.4,0.9c0.6,0.4,1.3,0.7,2.2,1c0.9,0.3,1.8,0.4,2.7,0.4s1.8-0.1,2.7-0.4c0.9-0.3,1.6-0.6,2.2-1
			c0.5-0.3,1-0.6,1.4-0.9c0.2-0.1,0.3-0.2,0.4-0.2c0.6,0,1.1,0.1,1.5,0.3c0.5,0.2,0.9,0.5,1.2,0.8c0.4,0.3,0.7,0.8,1,1.2
			c0.3,0.5,0.5,1,0.7,1.6c0.2,0.6,0.3,1.2,0.4,1.8c0.1,0.7,0.2,1.3,0.2,1.9v0c0,0.6,0.1,1.2,0.1,1.8C31.5,32.9,31.2,33.8,30.5,34.4z
			"/>
	</g>
</g>
</svg>
