<?xml version="1.0" encoding="utf-8"?>
<!-- Generator: Adobe Illustrator 22.1.0, SVG Export Plug-In . SVG Version: 6.00 Build 0)  -->
<svg version="1.1" id="Layer_1" xmlns="http://www.w3.org/2000/svg" xmlns:xlink="http://www.w3.org/1999/xlink" x="0px" y="0px"
	 viewBox="0 0 40 40" style="enable-background:new 0 0 40 40;" xml:space="preserve">
<style type="text/css">
	.st0{fill:#FFFFFF;}
</style>
<path class="st0" d="M36,20.7C36,20.7,36,20.7,36,20.7c0-4.3-1.7-8.4-4.7-11.4s-7.1-4.7-11.4-4.7S11.6,6.2,8.5,9.3
	s-4.7,7.1-4.7,11.4c0,0,0,0,0,0c0,0,0,0,0,0c0,0,0,0,0,0c0,4.3,1.7,8.3,4.7,11.3c3,3,7.1,4.7,11.4,4.7c0.4,0,0.9,0,1.3-0.1
	c0,0,0,0,0,0c3.8-0.3,7.4-1.9,10.1-4.7C34.3,29,36,25,36,20.7C36,20.7,36,20.7,36,20.7C36,20.7,36,20.7,36,20.7z M32.9,26.4h-5.5
	c0.5-1.8,0.8-3.4,0.8-4.8h5.8C34,23.3,33.6,24.9,32.9,26.4z M6.9,14.9h5.4c-0.5,1.8-0.8,3.5-0.8,4.8H5.7C5.8,18.1,6.2,16.5,6.9,14.9
	z M20.9,13.1V6.7c0.8,0.9,2.6,3.2,4,6.4H20.9z M25.5,14.9c0.5,1.5,0.8,3.1,0.9,4.8h-5.6v-4.8H25.5z M19,13.1H15
	c0.4-1,0.9-1.9,1.3-2.6c1-1.7,2.1-3,2.6-3.7V13.1z M19,14.9v4.8h-5.6c0.1-1.7,0.4-3.4,0.9-4.8H19z M5.7,21.7h5.8
	c0.1,1.7,0.4,3.3,0.8,4.8H6.9C6.2,24.9,5.8,23.3,5.7,21.7z M13.4,21.7H19v4.8h-4.6C13.8,24.9,13.5,23.3,13.4,21.7z M19,28.3v6.3
	c-0.8-1-2.6-3.2-3.9-6.3H19z M20.9,28.3h3.9c-0.4,1-0.9,1.9-1.3,2.6c-1,1.8-2.1,3.1-2.6,3.7V28.3z M20.9,26.4v-4.8h5.6
	c-0.1,1.7-0.5,3.3-0.9,4.8H20.9z M28.3,19.8c-0.1-1.6-0.3-3.2-0.8-4.8h5.4c0.7,1.5,1.1,3.1,1.2,4.8H28.3z M31.9,13.1h-5.1
	c-0.4-1.1-0.9-2.1-1.5-3.2c-0.7-1.2-1.3-2.2-1.9-3c2.4,0.6,4.7,1.9,6.5,3.7C30.7,11.4,31.4,12.2,31.9,13.1z M9.9,10.6
	c1.8-1.8,4.1-3.1,6.6-3.7c-0.5,0.7-1.1,1.5-1.7,2.5c-0.7,1.3-1.3,2.5-1.8,3.6H7.9C8.5,12.2,9.1,11.4,9.9,10.6z M7.9,28.3H13
	c0.5,1.4,1.2,2.6,1.8,3.6c0.6,1,1.2,1.9,1.7,2.6c-2.5-0.6-4.7-1.9-6.6-3.7C9.1,30,8.5,29.2,7.9,28.3z M30,30.7
	c-1.8,1.8-4.1,3.1-6.6,3.7c0.5-0.7,1.1-1.5,1.7-2.5c0.7-1.3,1.3-2.5,1.8-3.6h5.1C31.4,29.2,30.7,30,30,30.7z"/>
</svg>
