<?xml version="1.0" encoding="utf-8"?>
<!-- Generator: Adobe Illustrator 22.1.0, SVG Export Plug-In . SVG Version: 6.00 Build 0)  -->
<svg version="1.1" id="Layer_1" xmlns="http://www.w3.org/2000/svg" xmlns:xlink="http://www.w3.org/1999/xlink" x="0px" y="0px"
	 viewBox="0 0 40 40" style="enable-background:new 0 0 40 40;" xml:space="preserve">
<style type="text/css">
	.st0{fill:#676767;}
</style>
<g>
	<g>
		<g>
			<g>
				<path class="st0" d="M29,16.8h-1v-4.1c0-4.5-3.7-8.2-8.2-8.2s-8.2,3.7-8.2,8.2v4.1h-1c-1.7,0-3.1,1.4-3.1,3.1v14.3
					c0,1.7,1.4,3.1,3.1,3.1H29c1.7,0,3.1-1.4,3.1-3.1V19.9C32.1,18.2,30.7,16.8,29,16.8z M13.6,12.7c0-3.4,2.8-6.1,6.1-6.1
					s6.1,2.8,6.1,6.1v4.1H13.6V12.7z M30,34.2c0,0.6-0.5,1-1,1H10.5c-0.6,0-1-0.5-1-1V19.9c0-0.6,0.5-1,1-1H29c0.6,0,1,0.5,1,1V34.2
					z"/>
				<path class="st0" d="M19.8,22.3c-1.5,0-2.7,1.2-2.7,2.7c0,1.1,0.7,2.1,1.7,2.5v3.3c0,0.6,0.5,1,1,1c0.6,0,1-0.5,1-1v-3.3
					c1-0.4,1.7-1.4,1.7-2.5C22.5,23.5,21.3,22.3,19.8,22.3z M19.8,24.3c0.4,0,0.7,0.3,0.7,0.7s-0.3,0.7-0.7,0.7
					c-0.4,0-0.7-0.3-0.7-0.7S19.4,24.3,19.8,24.3z"/>
			</g>
		</g>
	</g>
</g>
</svg>
