<?xml version="1.0" encoding="utf-8"?>
<!-- Generator: Adobe Illustrator 22.1.0, SVG Export Plug-In . SVG Version: 6.00 Build 0)  -->
<svg version="1.1" id="Layer_1" xmlns="http://www.w3.org/2000/svg" xmlns:xlink="http://www.w3.org/1999/xlink" x="0px" y="0px"
	 viewBox="0 0 40 40" style="enable-background:new 0 0 40 40;" xml:space="preserve">
<style type="text/css">
	.st0{opacity:0.5;fill:#303030;}
</style>
<path class="st0" d="M30,10.5c-0.1-0.4-0.4-0.8-0.9-0.8H25V8.3c0-2.8-2.2-5-5-5s-5,2.2-5,5v1.4h-4.1c-0.4,0-0.8,0.3-0.9,0.8
	L7.8,29.5c0,0.2,0,0.5,0.2,0.7c0.2,0.2,0.4,0.3,0.6,0.3h22.8c0.2,0,0.5-0.1,0.6-0.3c0.2-0.2,0.2-0.4,0.2-0.7L30,10.5z M16.7,8.3
	C16.7,6.5,18.2,5,20,5s3.3,1.5,3.3,3.3v1.4h-6.6V8.3z M9.6,28.8l2.1-17.4H15v2.7c0,0.5,0.4,0.9,0.9,0.9s0.9-0.4,0.9-0.9v-2.7h6.6
	v2.7c0,0.5,0.4,0.9,0.9,0.9c0.5,0,0.9-0.4,0.9-0.9v-2.7h3.4l0,0.2l2,17.2H9.6z"/>
</svg>
