<?xml version="1.0" encoding="utf-8"?>
<!-- Generator: Adobe Illustrator 22.1.0, SVG Export Plug-In . SVG Version: 6.00 Build 0)  -->
<svg version="1.1" id="Layer_1" xmlns="http://www.w3.org/2000/svg" xmlns:xlink="http://www.w3.org/1999/xlink" x="0px" y="0px"
	 viewBox="0 0 40 40" style="enable-background:new 0 0 40 40;" xml:space="preserve">
<style type="text/css">
	.st0{fill:#4C4C4C;}
</style>
<g>
	<path class="st0" d="M35.5,31.2l-4.5-8c1-1.8,1.6-4,1.6-6.2C32.6,10,27,4.4,20,4.4S7.4,10,7.4,17c0,2.3,0.6,4.4,1.6,6.2l-4.5,8
		c-0.2,0.3-0.2,0.8,0,1.1c0.2,0.3,0.6,0.5,1,0.4l4.5-0.6l2.4,3.2c0.2,0.3,0.5,0.4,0.8,0.4c0,0,0,0,0.1,0c0.3,0,0.6-0.2,0.8-0.5
		l3.2-5.8c0.9,0.2,1.7,0.3,2.6,0.3c0.9,0,1.8-0.1,2.6-0.3l3.2,5.8c0.2,0.3,0.5,0.5,0.8,0.5c0,0,0,0,0.1,0c0.3,0,0.6-0.1,0.8-0.4
		l2.4-3.2l4.5,0.6c0.4,0.1,0.8-0.1,1-0.4S35.7,31.5,35.5,31.2z M13.1,32.7l-1.8-2.4c-0.2-0.3-0.5-0.4-0.8-0.4c0,0-0.1,0-0.1,0
		l-3.1,0.4l3-5.3c1.3,1.6,3.1,2.9,5.1,3.7L13.1,32.7z M21.6,27.4c-0.5,0.1-1.1,0.1-1.6,0.1c-0.5,0-1.1-0.1-1.6-0.1
		c-0.7-0.1-1.4-0.3-2-0.5c-2-0.7-3.7-2.1-5-3.8c-0.5-0.6-0.9-1.3-1.2-2.1c-0.5-1.3-0.8-2.6-0.8-4.1c0-5.8,4.7-10.6,10.6-10.6
		S30.6,11.2,30.6,17c0,1.4-0.3,2.8-0.8,4.1c-0.3,0.7-0.7,1.4-1.2,2.1c-1.2,1.7-3,3-5,3.8C23,27.2,22.3,27.3,21.6,27.4z M29.6,30
		c0,0-0.1,0-0.1,0c-0.3,0-0.6,0.1-0.8,0.4l-1.8,2.4l-2.2-4c2-0.8,3.7-2,5.1-3.7l3,5.3L29.6,30z"/>
</g>
</svg>
