<?xml version="1.0" encoding="utf-8"?>
<!-- Generator: Adobe Illustrator 22.1.0, SVG Export Plug-In . SVG Version: 6.00 Build 0)  -->
<svg version="1.1" id="Layer_1" xmlns="http://www.w3.org/2000/svg" xmlns:xlink="http://www.w3.org/1999/xlink" x="0px" y="0px"
	 viewBox="0 0 40 40" style="enable-background:new 0 0 40 40;" xml:space="preserve">
<style type="text/css">
	.st0{fill:#FF7CC6;}
</style>
<g>
	<path class="st0" d="M20.3,17.8c0.5,0,0.9-0.4,0.9-0.9V6.6c0-0.5-0.4-0.9-0.9-0.9c-0.5,0-0.9,0.5-0.9,0.9v10.4
		C19.3,17.4,19.8,17.8,20.3,17.8z"/>
	<path class="st0" d="M24.2,8.8c-0.4-0.2-1,0.1-1.2,0.5c-0.2,0.4,0.1,1,0.5,1.2c4.2,1.4,7.1,5.4,7.1,9.8c0,5.7-4.7,10.3-10.4,10.3
		S9.9,26,9.9,20.3c0-4.5,2.9-8.5,7.1-9.8c0.4-0.2,0.7-0.6,0.5-1.2c-0.2-0.4-0.6-0.7-1.2-0.5c-5,1.6-8.4,6.3-8.4,11.6
		c0,6.8,5.5,12.1,12.1,12.1S32.4,27,32.4,20.4C32.4,15.1,29.1,10.5,24.2,8.8z"/>
</g>
</svg>
