<svg id="Capa_1" data-name="Capa 1" xmlns="http://www.w3.org/2000/svg" viewBox="0 0 10 10"><title>info</title><path d="M4.56,2.48a0.44,0.44,0,0,1,.11-0.3A0.41,0.41,0,0,1,5,2.06a0.42,0.42,0,0,1,.33.12,0.44,0.44,0,0,1,.11.3,0.42,0.42,0,0,1-.11.3A0.43,0.43,0,0,1,5,2.9a0.42,0.42,0,0,1-.33-0.12A0.43,0.43,0,0,1,4.56,2.48Zm0.8,5.46H4.62V3.63H5.36V7.94Z" transform="translate(0 0)"/><path d="M5,10a5,5,0,1,1,5-5A5,5,0,0,1,5,10ZM5,0.68A4.32,4.32,0,1,0,9.32,5,4.32,4.32,0,0,0,5,.68Z" transform="translate(0 0)"/></svg>