<?xml version="1.0" encoding="utf-8"?>
<!-- Generator: Adobe Illustrator 22.1.0, SVG Export Plug-In . SVG Version: 6.00 Build 0)  -->
<svg version="1.1" id="Capa_1" xmlns="http://www.w3.org/2000/svg" xmlns:xlink="http://www.w3.org/1999/xlink" x="0px" y="0px"
	 viewBox="0 0 19 19" enable-background="new 0 0 19 19" xml:space="preserve">
<title>secret-icon</title>
<path fill="#FFFFFF" d="M8.22,4.44C8.132,4.081,8.352,3.718,8.711,3.629C8.763,3.616,8.816,3.61,8.87,3.61h1.59
	c0.37,0,0.67,0.301,0.669,0.671c0,0.054-0.007,0.107-0.02,0.159l-0.7,6.09c-0.047,0.412-0.419,0.707-0.831,0.66
	c-0.347-0.04-0.62-0.313-0.66-0.66L8.22,4.44z M9.66,12.31c0.75-0.028,1.382,0.558,1.409,1.309c0.001,0.024,0.001,0.047,0.001,0.071
	l0,0c-0.009,0.779-0.647,1.403-1.426,1.394c-0.766-0.009-1.385-0.628-1.394-1.394l0,0c-0.012-0.751,0.588-1.369,1.339-1.381
	C9.613,12.309,9.637,12.309,9.66,12.31z"/>
</svg>
