<?xml version="1.0" encoding="utf-8"?>
<!-- Generator: Adobe Illustrator 22.1.0, SVG Export Plug-In . SVG Version: 6.00 Build 0)  -->
<svg version="1.1" id="Capa_1" xmlns="http://www.w3.org/2000/svg" xmlns:xlink="http://www.w3.org/1999/xlink" x="0px" y="0px"
	 viewBox="0 0 19 19" enable-background="new 0 0 19 19" xml:space="preserve">
<title>star-icon</title>
<path fill="#FFFFFF" d="M9.94,4.82l1.12,2.28c0.071,0.146,0.209,0.247,0.37,0.27l2.51,0.37c0.268,0.038,0.455,0.285,0.417,0.553
	C14.342,8.403,14.29,8.504,14.21,8.58l-1.82,1.77c-0.114,0.112-0.167,0.272-0.14,0.43l0.43,2.5c0.047,0.266-0.13,0.521-0.396,0.568
	c-0.107,0.019-0.217,0.002-0.313-0.048l-2.25-1.18c-0.144-0.076-0.316-0.076-0.46,0L7.01,13.8c-0.24,0.126-0.536,0.033-0.662-0.206
	c-0.05-0.096-0.067-0.207-0.048-0.314l0.43-2.5c0.026-0.157-0.026-0.318-0.14-0.43l-1.82-1.77C4.575,8.394,4.567,8.083,4.753,7.887
	C4.83,7.807,4.931,7.755,5.041,7.74l2.51-0.37C7.711,7.347,7.849,7.246,7.92,7.1l1.12-2.28c0.107-0.248,0.396-0.363,0.645-0.255
	C9.799,4.614,9.891,4.705,9.94,4.82z"/>
</svg>
