<?xml version="1.0" encoding="utf-8"?>
<!-- Generator: Adobe Illustrator 22.1.0, SVG Export Plug-In . SVG Version: 6.00 Build 0)  -->
<svg version="1.1" id="Layer_1" xmlns="http://www.w3.org/2000/svg" xmlns:xlink="http://www.w3.org/1999/xlink" x="0px" y="0px"
	 viewBox="0 0 40 40" style="enable-background:new 0 0 40 40;" xml:space="preserve">
<style type="text/css">
	.st0{fill:#FF7CC6;}
</style>
<g>
	<path class="st0" d="M17.4,5.9l1.4-1.6v19.2c0,0.6,0.5,1.2,1.2,1.2s1.2-0.5,1.2-1.2v-19l1.4,1.6c0.2,0.2,0.5,0.4,0.8,0.4
		c0.3,0,0.5-0.1,0.7-0.3c0.5-0.4,0.5-1.1,0.1-1.6l-3.5-4c-0.2-0.2-0.5-0.4-0.8-0.4h0c-0.3,0-0.6,0.1-0.8,0.4l-3.3,3.7
		c-0.4,0.5-0.4,1.2,0.1,1.6C16.3,6.4,17,6.3,17.4,5.9z"/>
	<path class="st0" d="M28.9,9.3h-4c-0.6,0-1.1,0.5-1.1,1.1c0,0.6,0.5,1.1,1.1,1.1h4c1.6,0,2.8,1.3,2.8,2.8v10.3
		c0,1.6-1.3,2.8-2.8,2.8H11.1c-1.6,0-2.8-1.3-2.8-2.8V14.4c0-1.6,1.3-2.8,2.8-2.8h4c0.6,0,1.1-0.5,1.1-1.1c0-0.6-0.5-1.1-1.1-1.1h-4
		c-2.8,0-5,2.3-5,5v10.3c0,2.8,2.3,5,5,5h17.8c2.8,0,5-2.3,5-5V14.4C33.9,11.6,31.7,9.3,28.9,9.3z"/>
</g>
</svg>
