<?xml version="1.0" encoding="utf-8"?>
<!-- Generator: Adobe Illustrator 22.1.0, SVG Export Plug-In . SVG Version: 6.00 Build 0)  -->
<svg version="1.1" id="Layer_1" xmlns="http://www.w3.org/2000/svg" xmlns:xlink="http://www.w3.org/1999/xlink" x="0px" y="0px"
	 viewBox="0 0 40 40" style="enable-background:new 0 0 40 40;" xml:space="preserve">
<style type="text/css">
	.st0{fill:#FF7CC6;}
	.st1{fill:#FFFFFF;}
</style>
<rect class="st0" width="40" height="40"/>
<g>
	<path class="st1" d="M20,12.2c-3.1,0-4.1,2.5-4.2,3.8c0,0.6,0.4,1,1,1.1c0.6,0,1-0.4,1.1-1c0-0.2,0.2-1.9,2.1-1.9
		c2,0,2.2,1.3,2.2,1.9c0,0.4,0,1.1-1,2.2l-0.3,0.3c-1.3,1.2-2.1,2.1-2.1,4.5c0,0.6,0.5,1,1,1s1-0.5,1-1c0-1.6,0.3-1.9,1.5-3l0.3-0.3
		c1.7-1.7,1.7-3.1,1.6-3.7C24.2,14.7,23.3,12.2,20,12.2z"/>
	<circle class="st1" cx="19.8" cy="26.3" r="1"/>
</g>
</svg>
