<?xml version="1.0" encoding="utf-8"?>
<!-- Generator: Adobe Illustrator 22.1.0, SVG Export Plug-In . SVG Version: 6.00 Build 0)  -->
<svg version="1.1" id="Layer_1" xmlns="http://www.w3.org/2000/svg" xmlns:xlink="http://www.w3.org/1999/xlink" x="0px" y="0px"
	 viewBox="0 0 40 40" style="enable-background:new 0 0 40 40;" xml:space="preserve">
<style type="text/css">
	.st0{fill:#6D6D6D;}
</style>
<g>
	<g>
		<g>
			<path class="st0" d="M35.9,19.4c-0.3-0.4-7-9.4-15.5-9.4S5.1,19,4.8,19.4c-0.3,0.4-0.3,0.9,0,1.2c0.3,0.4,7,9.4,15.5,9.4
				s15.2-9,15.5-9.4C36.2,20.3,36.2,19.8,35.9,19.4z M20.4,28C14.1,28,8.6,22,7,20c1.6-2,7.1-7.9,13.4-7.9s11.8,6,13.4,8
				C32.1,22,26.7,28,20.4,28z"/>
		</g>
	</g>
	<g>
		<g>
			<path class="st0" d="M20.4,13.8c-3.4,0-6.2,2.8-6.2,6.2s2.8,6.2,6.2,6.2s6.2-2.8,6.2-6.2S23.8,13.8,20.4,13.8z M20.4,24.2
				c-2.3,0-4.1-1.9-4.1-4.1s1.9-4.1,4.1-4.1s4.1,1.9,4.1,4.1S22.7,24.2,20.4,24.2z"/>
		</g>
	</g>
</g>
</svg>
